#N canvas 15 23 450 300 10;
#X obj 19 140 bng 15 250 50 0 empty empty empty 17 7 0 10 -262144 -1
-1;
#X obj 42 140 bng 15 250 50 0 empty empty empty 17 7 0 10 -262144 -1
-1;
#X obj 65 140 bng 15 250 50 0 empty empty empty 17 7 0 10 -262144 -1
-1;
#X floatatom 88 141 5 0 0 0 - - -, f 5;
#N canvas 0 22 163 176 chirp~ 0;
#X obj 11 10 inlet;
#X obj 11 32 route bang pitch;
#X obj 11 95 vline~;
#X obj 11 117 *~;
#X obj 109 73 mtof;
#X obj 109 95 osc~;
#X obj 11 139 outlet~;
#X msg 11 73 1 5 \, 0 100 30;
#X connect 0 0 1 0;
#X connect 1 0 7 0;
#X connect 1 1 4 0;
#X connect 2 0 3 0;
#X connect 3 0 6 0;
#X connect 4 0 5 0;
#X connect 5 0 3 1;
#X connect 7 0 2 0;
#X restore 19 204 pd chirp~;
#N canvas 0 22 163 176 chirp~ 0;
#X obj 11 10 inlet;
#X obj 11 32 route bang pitch;
#X obj 11 95 vline~;
#X obj 11 117 *~;
#X obj 109 73 mtof;
#X obj 109 95 osc~;
#X obj 11 139 outlet~;
#X msg 11 73 1 5 \, 0 100 30;
#X connect 0 0 1 0;
#X connect 1 0 7 0;
#X connect 1 1 4 0;
#X connect 2 0 3 0;
#X connect 3 0 6 0;
#X connect 4 0 5 0;
#X connect 5 0 3 1;
#X connect 7 0 2 0;
#X restore 42 182 pd chirp~;
#N canvas 0 22 163 176 chirp~ 0;
#X obj 11 10 inlet;
#X obj 11 32 route bang pitch;
#X obj 11 95 vline~;
#X obj 11 117 *~;
#X obj 109 73 mtof;
#X obj 109 95 osc~;
#X obj 11 139 outlet~;
#X msg 11 73 1 5 \, 0 100 30;
#X connect 0 0 1 0;
#X connect 1 0 7 0;
#X connect 1 1 4 0;
#X connect 2 0 3 0;
#X connect 3 0 6 0;
#X connect 4 0 5 0;
#X connect 5 0 3 1;
#X connect 7 0 2 0;
#X restore 65 160 pd chirp~;
#X msg 140 187 pitch 60;
#X msg 140 165 pitch 67;
#X msg 140 143 pitch 74;
#X obj 140 118 loadbang;
#X obj 19 248 dac~;
#X obj 19 226 *~ 0.15;
#X obj 19 80 bng 15 250 50 0 empty empty empty 17 7 0 10 -262144 -1
-1;
#X obj 19 30 tgl 15 0 empty empty empty 17 7 0 10 -262144 -1 -1 0 1
;
#X obj 19 52 metro 200;
#X msg 97 56 reset;
#X msg 103 79 2;
#X msg 132 80 5;
#X obj 19 108 polybang 3 2;
#X connect 0 0 4 0;
#X connect 1 0 5 0;
#X connect 2 0 6 0;
#X connect 4 0 12 0;
#X connect 5 0 12 0;
#X connect 6 0 12 0;
#X connect 7 0 4 0;
#X connect 8 0 5 0;
#X connect 9 0 6 0;
#X connect 10 0 7 0;
#X connect 10 0 8 0;
#X connect 10 0 9 0;
#X connect 12 0 11 0;
#X connect 12 0 11 1;
#X connect 13 0 19 0;
#X connect 14 0 15 0;
#X connect 15 0 13 0;
#X connect 16 0 19 0;
#X connect 17 0 19 1;
#X connect 18 0 19 2;
#X connect 19 0 0 0;
#X connect 19 1 1 0;
#X connect 19 2 2 0;
#X connect 19 3 3 0;
